<svg width="162" height="185" viewBox="0 0 162 185" fill="none" xmlns="http://www.w3.org/2000/svg">
<path fill-rule="evenodd" clip-rule="evenodd" d="M0.0983704 177.379C0.737978 182.568 5.53503 186.536 10.9717 186.536H382.743C388.82 186.536 393.617 181.805 393.617 176.158C393.617 172.19 391.378 168.833 388.02 167.001L30.4797 -62.3713V-1.93778C107.872 66.1263 173.592 145.636 9.53257 165.781C3.45631 166.544 -0.701138 171.732 0.0983704 177.379Z" fill="url(#paint0_linear_1_909)" fill-opacity="0.5"/>
<path fill-rule="evenodd" clip-rule="evenodd" d="M490.997 -85.5676H119.225C113.149 -85.5676 108.352 -80.8367 108.352 -75.1901C108.352 -71.2223 110.591 -67.8649 113.948 -66.0335L486.839 177.837V116.183C403.691 45.8296 317.344 -43.2947 492.436 -64.8127C498.352 -65.5757 502.67 -70.7645 501.87 -76.411C501.071 -81.7524 496.434 -85.5676 490.997 -85.5676Z" fill="url(#paint1_linear_1_909)" fill-opacity="0.5"/>
<defs>
<linearGradient id="paint0_linear_1_909" x1="-8.23059" y1="47.3424" x2="390.357" y2="282.207" gradientUnits="userSpaceOnUse">
<stop stop-color="white" stop-opacity="0.34"/>
<stop offset="0.5206" stop-color="#009BD9" stop-opacity="0"/>
<stop offset="0.8465" stop-color="white"/>
<stop offset="0.926512" stop-color="white"/>
<stop offset="1" stop-color="white"/>
</linearGradient>
<linearGradient id="paint1_linear_1_909" x1="112.097" y1="-156.865" x2="510.685" y2="78" gradientUnits="userSpaceOnUse">
<stop stop-color="#58C0E1" stop-opacity="0"/>
<stop offset="0.5206" stop-color="#009BD9" stop-opacity="0.64"/>
<stop offset="0.8465" stop-color="#42B6E0" stop-opacity="0"/>
<stop offset="1" stop-color="#5FC4E1" stop-opacity="0"/>
</linearGradient>
</defs>
</svg>
