<svg width="200" height="54" viewBox="0 0 200 54" fill="none" xmlns="http://www.w3.org/2000/svg">
<g clip-path="url(#clip0_1_942)">
<path fill-rule="evenodd" clip-rule="evenodd" d="M17.0846 0.507042C24.3094 -0.169014 30.0893 -0.169014 37.3141 0.507042C46.3239 1.35211 52.9537 7.94366 53.8037 16.9014C54.4837 24.0845 54.4837 29.831 53.8037 37.0141C53.8037 37.3521 53.7187 37.6901 53.7187 37.9437C47.0038 31.6901 28.6443 18.8451 48.5338 16.3099C49.0438 16.2254 49.4688 15.8028 49.3838 15.2113C49.2988 14.7042 48.8738 14.3662 48.4488 14.3662H15.5546C15.0446 14.3662 14.6197 14.7887 14.6197 15.2958C14.6197 15.6338 14.7897 15.9718 15.1296 16.1408L52.8687 41.3239C50.5738 48 44.7939 52.5634 37.3141 53.3239C30.0893 54 24.3094 54 17.0846 53.3239C8.07482 52.4789 1.44499 45.8873 0.595009 36.9296C-0.0849738 29.7465 -0.0849738 24 0.595009 16.8169C0.595009 16.4789 0.680007 16.1408 0.680007 15.8873C7.39484 22.1408 25.7544 34.9859 5.86488 37.5211C5.35489 37.6056 4.9299 38.0282 5.0149 38.6197C5.0999 39.1268 5.52489 39.4648 5.94988 39.4648H38.7591C39.269 39.4648 39.694 39.0423 39.694 38.5352C39.694 38.1972 39.524 37.8592 39.184 37.6901L1.52999 12.507C3.73993 5.83099 9.60478 1.26761 17.0846 0.507042Z" fill="url(#paint0_linear_1_942)"/>
<path fill-rule="evenodd" clip-rule="evenodd" d="M89.1844 10.2817C87.9095 8.76056 86.2945 8 84.2546 8H74.2248C72.4399 8 70.9099 8.59155 69.5499 9.69014C67.85 11.1268 67 12.9859 67 15.1831V22.6197C67 24.3944 67.595 25.9155 68.785 27.2676C70.2299 28.9577 72.0149 29.8028 74.2248 29.8028H84.2546C85.7845 29.8028 87.1445 29.2958 88.3345 28.2817C89.8644 27.0141 90.6294 25.4085 90.6294 23.3803C90.6294 21.6056 89.9494 20.0845 88.6745 18.8169C89.9494 17.5493 90.6294 16.0282 90.6294 14.2535C90.7144 12.8169 90.2044 11.4648 89.1844 10.2817ZM86.5495 24.7324C86.0395 25.5775 85.2745 26.0845 84.2546 26.0845H74.2248C73.5448 26.0845 72.9498 25.9155 72.3549 25.5775C71.3349 24.9014 70.8249 23.9718 70.8249 22.7042V20.7606H84.2546C84.6796 20.7606 85.1045 20.8451 85.5295 21.0986C86.3795 21.6056 86.8895 22.3662 86.8895 23.3803C86.8895 23.8873 86.8045 24.3099 86.5495 24.7324ZM86.5495 15.6056C86.0395 16.5352 85.2745 16.9577 84.2546 16.9577H70.8249V15.1831C70.8249 14.507 70.9949 13.9155 71.3349 13.3239C72.0149 12.3099 72.9499 11.8028 74.2248 11.8028H84.2546C84.6796 11.8028 85.1045 11.8873 85.5295 12.1408C86.3795 12.6479 86.8895 13.4085 86.8895 14.4225C86.8895 14.7606 86.8045 15.1831 86.5495 15.6056Z" fill="#009BD9"/>
<path fill-rule="evenodd" clip-rule="evenodd" d="M198.13 26.4506H189.12C187.335 26.4506 185.805 25.8591 184.445 24.7605C182.745 23.3239 181.98 21.5492 181.98 19.3521C181.98 17.5774 182.575 16.0563 183.68 14.7042C185.125 13.014 186.91 12.2535 189.12 12.2535H198.13C198.385 12.2535 198.64 12.169 198.895 12.0845C199.66 11.7464 200 11.1549 200 10.3943C200 10.1408 199.915 9.88727 199.83 9.63375C199.49 8.87318 198.895 8.53516 198.13 8.53516C198.13 8.53516 196.6 8.53516 193.625 8.53516C190.65 8.53516 189.12 8.53516 189.12 8.53516C186.145 8.53516 183.51 9.63375 181.385 11.7464C179.261 13.8591 178.241 16.3943 178.241 19.4366C178.241 22.3943 179.346 25.014 181.47 27.1267C183.595 29.2394 186.145 30.2535 189.12 30.2535H198.13C198.385 30.2535 198.64 30.169 198.895 30.0844C199.66 29.7464 200 29.1549 200 28.3943C200 28.1408 199.915 27.8873 199.83 27.6337C199.49 26.7887 198.895 26.4506 198.13 26.4506Z" fill="#009BD9"/>
<path fill-rule="evenodd" clip-rule="evenodd" d="M72.5882 40.9014V36.845H68.4233L68.3383 38.6197C68.2534 39.8028 68.1684 40.9014 67.4034 40.9014H67.1484V43.0141H68.2534V41.9155H72.2482V43.0141H73.3532V40.9014H72.5882ZM69.4433 38.6197V37.7746H71.3983V40.8169H68.8483C69.2733 40.4788 69.3583 39.6338 69.4433 38.6197ZM79.1331 39.3802C79.1331 37.7746 78.0281 36.7605 76.5831 36.7605C75.0532 36.7605 73.9482 37.8591 73.9482 39.3802C73.9482 40.9014 75.0532 42 76.7531 42C77.6031 42 78.3681 41.7464 78.7931 41.1549L78.1981 40.3943C77.8581 40.7324 77.3481 40.9014 76.8381 40.9014C75.9882 40.9014 75.3082 40.3943 75.2232 39.7183H79.2181C79.1331 39.6338 79.1331 39.4648 79.1331 39.3802ZM76.5831 37.6901C77.3481 37.6901 77.9431 38.1971 78.0281 38.9577H75.1382C75.2232 38.1971 75.8182 37.6901 76.5831 37.6901ZM80.493 41.9155H81.683V39.8873H84.2329V41.9155H85.4229V36.845H84.2329V38.8732H81.683V36.845H80.493V41.9155ZM91.7978 39.3802C91.7978 37.7746 90.6928 36.7605 89.2478 36.7605C87.7179 36.7605 86.6129 37.8591 86.6129 39.3802C86.6129 40.9014 87.7179 42 89.4178 42C90.2678 42 91.0328 41.7464 91.4578 41.1549L90.7778 40.3943C90.4378 40.7324 89.9278 40.9014 89.4178 40.9014C88.5678 40.9014 87.8879 40.3943 87.8029 39.7183H91.7978C91.7978 39.6338 91.7978 39.4648 91.7978 39.3802ZM89.2478 37.6901C90.0128 37.6901 90.6078 38.1971 90.6928 38.9577H87.8029C87.8879 38.1971 88.3978 37.6901 89.2478 37.6901ZM99.0226 41.9155H100.468L98.7676 39.2957L100.298 36.845H99.0226L97.7476 38.8732H96.8976V36.845H95.7077V38.8732H94.8577L93.5827 36.845H92.3077L93.8377 39.2957L92.1378 41.9155H93.5827L94.8577 39.8873H95.7077V41.9155H96.8976V39.8873H97.7476L99.0226 41.9155ZM101.318 41.9155H102.507V39.8873H105.057V41.9155H106.247V36.845H105.057V38.8732H102.507V36.845H101.318V41.9155ZM110.327 38.5352H109.052V36.845H107.862V41.9155H110.157C111.517 41.9155 112.367 41.3239 112.367 40.1408C112.367 39.1267 111.687 38.5352 110.327 38.5352ZM113.047 41.9155H114.237V36.845H113.047V41.9155ZM110.072 40.9859H109.052V39.2957H110.072C110.752 39.2957 111.177 39.5493 111.177 40.1408C111.177 40.7324 110.752 41.0704 110.072 40.9859ZM120.612 39.3802C120.612 37.7746 119.507 36.7605 118.062 36.7605C116.532 36.7605 115.427 37.8591 115.427 39.3802C115.427 40.9014 116.532 42 118.232 42C119.082 42 119.847 41.7464 120.272 41.1549L119.592 40.3943C119.252 40.7324 118.742 40.9014 118.232 40.9014C117.382 40.9014 116.702 40.3943 116.617 39.7183H120.612C120.527 39.6338 120.612 39.4648 120.612 39.3802ZM117.977 37.6901C118.742 37.6901 119.337 38.1971 119.422 38.9577H116.532C116.702 38.1971 117.212 37.6901 117.977 37.6901ZM124.522 36.845V41.9155H125.712V37.8591H128.262V41.9155H129.452V36.845H124.522ZM135.742 39.3802C135.742 37.7746 134.637 36.7605 133.192 36.7605C131.662 36.7605 130.557 37.8591 130.557 39.3802C130.557 40.9014 131.662 42 133.362 42C134.212 42 134.977 41.7464 135.402 41.1549L134.722 40.3943C134.382 40.7324 133.872 40.9014 133.362 40.9014C132.512 40.9014 131.832 40.3943 131.747 39.7183H135.742C135.742 39.6338 135.742 39.4648 135.742 39.3802ZM133.192 37.6901C133.957 37.6901 134.552 38.1971 134.637 38.9577H131.747C131.832 38.1971 132.427 37.6901 133.192 37.6901ZM139.907 36.7605C139.227 36.7605 138.632 37.0141 138.207 37.5211V36.845H137.102V43.7746H138.292V41.3239C138.717 41.7464 139.312 42 139.907 42C141.352 42 142.456 40.9859 142.456 39.3802C142.456 37.7746 141.352 36.7605 139.907 36.7605ZM139.737 40.9014C138.887 40.9014 138.207 40.3098 138.207 39.2957C138.207 38.3662 138.887 37.6901 139.737 37.6901C140.587 37.6901 141.267 38.2817 141.267 39.2957C141.267 40.3098 140.587 40.9014 139.737 40.9014ZM148.406 39.3802C148.406 37.7746 147.301 36.7605 145.856 36.7605C144.326 36.7605 143.221 37.8591 143.221 39.3802C143.221 40.9014 144.326 42 146.026 42C146.876 42 147.641 41.7464 148.066 41.1549L147.386 40.3943C147.046 40.7324 146.536 40.9014 146.026 40.9014C145.176 40.9014 144.496 40.3943 144.411 39.7183H148.406C148.406 39.6338 148.406 39.4648 148.406 39.3802ZM145.856 37.6901C146.621 37.6901 147.216 38.1971 147.301 38.9577H144.411C144.496 38.1971 145.091 37.6901 145.856 37.6901ZM153.421 39.2957C153.931 39.1267 154.186 38.7042 154.186 38.1972C154.186 37.3521 153.421 36.9295 152.231 36.9295H149.766V42H152.401C153.761 42 154.441 41.4929 154.441 40.5633C154.356 39.8873 154.101 39.4648 153.421 39.2957ZM150.871 37.6901H152.146C152.741 37.6901 153.081 37.8591 153.081 38.2817C153.081 38.7042 152.741 38.9577 152.146 38.9577H150.871V37.6901ZM152.231 40.9859H150.871V39.7183H152.231C152.911 39.7183 153.166 39.9718 153.166 40.3943C153.251 40.8169 152.911 40.9859 152.231 40.9859ZM157.926 41.9155C159.541 41.9155 160.646 40.8169 160.646 39.2957C160.646 37.7746 159.541 36.676 157.926 36.676C156.396 36.676 155.206 37.7746 155.206 39.2957C155.206 40.9014 156.311 41.9155 157.926 41.9155ZM157.926 40.9014C157.076 40.9014 156.396 40.3098 156.396 39.2957C156.396 38.3662 157.076 37.6901 157.926 37.6901C158.776 37.6901 159.456 38.2817 159.456 39.2957C159.456 40.3098 158.776 40.9014 157.926 40.9014ZM166.426 40.9014V36.845H162.261L162.176 38.6197C162.091 39.8028 162.006 40.9014 161.241 40.9014H160.986V43.0141H162.091V41.9155H166.001V43.0141H167.106V40.9014H166.426ZM163.281 38.6197V37.7746H165.236V40.8169H162.771C163.111 40.4788 163.196 39.6338 163.281 38.6197ZM170.761 38.5352H169.486V36.845H168.296V41.9155H170.591C171.951 41.9155 172.801 41.3239 172.801 40.1408C172.716 39.1267 172.036 38.5352 170.761 38.5352ZM173.396 41.9155H174.586V36.845H173.396V41.9155ZM170.421 40.9859H169.401V39.2957H170.421C171.101 39.2957 171.526 39.5493 171.526 40.1408C171.526 40.7324 171.186 41.0704 170.421 40.9859Z" fill="#009BD9"/>
<path fill-rule="evenodd" clip-rule="evenodd" d="M157.42 14.3239C158.1 13.2254 159.035 12.7183 160.31 12.7183C164.56 12.7183 168.81 12.7183 172.975 12.7183C173.229 12.7183 173.484 12.6338 173.739 12.5493C174.504 12.2113 174.844 11.7042 174.844 10.8592C174.844 10.6056 174.759 10.3521 174.674 10.0986C174.334 9.33803 173.739 9 172.975 9C172.975 9 172.125 9 170.51 9C168.895 9 166.94 9 164.645 9C162.35 9 160.905 9 160.225 9C158.44 9 156.91 9.59155 155.465 10.7746C153.765 12.2113 153 13.9859 153 16.1831V23.5352C153 25.3099 153.595 26.9155 154.7 28.2676C156.145 29.9577 158.015 30.7183 160.225 30.7183C164.475 30.7183 168.725 30.7183 172.89 30.7183C173.145 30.7183 173.399 30.6338 173.654 30.5493C174.419 30.2113 174.759 29.6197 174.759 28.8592C174.759 28.6056 174.674 28.3521 174.589 28.0986C174.249 27.338 173.654 27 172.89 27C168.64 27 164.39 27 160.225 27C159.545 27 158.95 26.831 158.355 26.493C157.335 25.8169 156.825 24.8028 156.825 23.6197V21.8451C164.56 21.8451 168.47 21.8451 168.47 21.8451C168.725 21.8451 168.98 21.7606 169.235 21.6761C170 21.338 170.34 20.7465 170.34 19.9859C170.34 19.7324 170.255 19.4789 170.17 19.1408C169.83 18.3803 169.235 18.0423 168.47 18.0423H156.825V16.2676C156.825 15.507 156.995 14.9155 157.42 14.3239Z" fill="#009BD9"/>
<path fill-rule="evenodd" clip-rule="evenodd" d="M142.255 8H132.225C130.44 8 128.91 8.59155 127.55 9.69014C125.85 11.1268 125 12.9859 125 15.1831C125 23.6338 125 27.9437 125 27.9437C125 28.1972 125.085 28.4507 125.17 28.7887C125.51 29.5493 126.02 29.8873 126.87 29.8873C127.125 29.8873 127.38 29.8028 127.635 29.7183C128.4 29.3803 128.74 28.8732 128.74 28.0282C128.74 27.2676 128.74 26 128.74 24.3944C128.74 22.7887 128.74 21.6056 128.74 20.7606H142.17C143.7 20.7606 145.059 20.2535 146.249 19.3239C147.779 18.0563 148.544 16.3662 148.544 14.4225C148.544 12.9014 148.034 11.5493 147.014 10.3662C145.824 8.76056 144.21 8 142.255 8ZM144.465 15.6056C143.955 16.5352 143.19 16.9577 142.17 16.9577H128.74V15.1831C128.74 14.507 128.91 13.9155 129.25 13.3239C129.93 12.3099 130.865 11.8028 132.14 11.8028H142.17C142.595 11.8028 143.02 11.8873 143.445 12.1408C144.295 12.6479 144.804 13.4085 144.804 14.4225C144.804 14.7606 144.72 15.1831 144.465 15.6056Z" fill="#009BD9"/>
<path fill-rule="evenodd" clip-rule="evenodd" d="M113.75 11.7153C113.24 10.7012 112.56 9.7716 111.625 9.09555C110.01 7.99695 108.225 7.74343 106.27 8.25048C104.315 8.75752 102.955 9.94062 102.105 11.7153L95.2203 27.0955C95.1353 27.2646 95.0503 27.4336 95.0503 27.6026C94.8803 28.5322 95.1353 29.2082 95.9003 29.6308C96.1553 29.7998 96.4953 29.8843 96.7503 29.8843C97.6003 29.8843 98.1103 29.6308 98.4503 28.9547L100.405 24.4758H115.365L117.32 28.9547C117.405 29.2082 117.66 29.4617 117.83 29.6308C118.425 30.0533 119.105 30.0533 119.87 29.6308C119.955 29.5462 120.125 29.4617 120.295 29.2927C120.89 28.7012 120.975 27.9406 120.55 27.0955L113.75 11.7153ZM102.105 20.842L105.335 13.5744C105.42 13.4899 105.505 13.3209 105.59 13.1519C106.185 12.2223 107.035 11.7998 108.14 11.8843C109.245 11.9688 110.01 12.5603 110.52 13.5744L113.75 20.842H102.105Z" fill="#009BD9"/>
</g>
<defs>
<linearGradient id="paint0_linear_1_942" x1="27.1627" y1="53.9943" x2="27.1627" y2="0" gradientUnits="userSpaceOnUse">
<stop stop-color="#009BD9"/>
<stop offset="1" stop-color="#5FC4E1"/>
</linearGradient>
<clipPath id="clip0_1_942">
<rect width="200" height="54" fill="white"/>
</clipPath>
</defs>
</svg>
