<svg width="189" height="51" viewBox="0 0 189 51" fill="none" xmlns="http://www.w3.org/2000/svg">
<g clip-path="url(#clip0_1_62)">
<path fill-rule="evenodd" clip-rule="evenodd" d="M16.1575 0.527951C22.9606 -0.10559 28.3819 -0.10559 35.2914 0.527951C43.7953 1.37267 50.0669 7.49689 50.9173 16.0497C51.5551 22.8075 51.5551 28.2981 50.9173 35.0559C50.9173 35.3727 50.811 35.6894 50.811 36.0062C44.4331 30.0932 27.1063 18.0559 45.9213 15.6273C46.4528 15.5217 46.7717 15.0994 46.6654 14.5714C46.5591 14.0435 46.1339 13.7267 45.7087 13.7267H14.6693C14.1378 13.7267 13.7126 14.1491 13.7126 14.677C13.7126 14.9938 13.9252 15.3106 14.1378 15.4162L49.9606 39.1739C47.8347 45.5093 42.3071 49.8385 35.2914 50.4721C28.4882 51.1056 23.0669 51.1056 16.1575 50.4721C7.54726 49.6273 1.3819 43.5031 0.531508 34.9503C-0.106287 28.1925 -0.106287 22.7019 0.531508 15.9441C0.531508 15.6273 0.637807 15.3106 0.637807 14.9938C7.01576 20.9068 24.3425 32.9441 5.52757 35.3727C4.99607 35.4783 4.67718 35.9006 4.78348 36.4286C4.88978 36.8509 5.20867 37.1677 5.63387 37.2733H36.5669C37.0984 37.2733 37.5236 36.8509 37.5236 36.323C37.5236 36.0062 37.311 35.6894 37.0984 35.5839L1.3819 11.8261C3.61419 5.49068 9.03544 1.16149 16.1575 0.527951Z" fill="white"/>
<path fill-rule="evenodd" clip-rule="evenodd" d="M106.817 11.4772C106.391 10.5269 105.647 9.68221 104.797 9.04867C103.309 7.99277 101.608 7.78159 99.6946 8.20395C97.8875 8.62631 96.5056 9.68221 95.7615 11.4772L89.2773 26.0487C89.171 26.1543 89.171 26.3654 89.0647 26.5766C88.8521 27.4213 89.171 28.0549 89.915 28.4772C90.1276 28.5828 90.4465 28.6884 90.7654 28.6884C91.5095 28.6884 92.041 28.3717 92.3599 27.8437L94.2733 23.6201H108.411L110.324 27.8437C110.431 28.0549 110.643 28.2661 110.856 28.4772C111.494 28.8996 112.132 28.8996 112.769 28.4772C112.876 28.3716 113.088 28.2661 113.195 28.1605C113.726 27.6325 113.832 26.8934 113.407 26.0487L106.817 11.4772ZM95.7615 20.03L98.8442 13.1667C98.8442 13.0611 98.9505 12.9555 99.0568 12.7443C99.5883 11.8996 100.439 11.4772 101.502 11.4772C102.565 11.5828 103.309 12.1108 103.734 13.0611L106.817 19.9244H95.7615V20.03Z" fill="white"/>
<path fill-rule="evenodd" clip-rule="evenodd" d="M134.264 8H124.803C123.102 8 121.614 8.52795 120.339 9.58385C118.744 10.9565 118 12.646 118 14.7578C118 22.7826 118 26.795 118 26.795C118 27.0062 118.106 27.323 118.213 27.5342C118.531 28.1677 119.063 28.5901 119.807 28.5901C120.02 28.5901 120.339 28.4845 120.551 28.3789C121.189 28.0621 121.614 27.5342 121.614 26.795C121.614 26.0559 121.614 24.8944 121.614 23.4161C121.614 21.9379 121.614 20.7764 121.614 20.0373H134.37C135.858 20.0373 137.134 19.6149 138.197 18.6646C139.685 17.3975 140.429 15.9193 140.429 14.0186C140.429 12.5404 139.898 11.2733 139.047 10.2174C137.665 8.63354 136.071 8 134.264 8ZM136.39 15.1801C135.965 16.0248 135.22 16.4472 134.264 16.4472H121.508V14.7578C121.508 14.1242 121.72 13.4907 122.039 12.9627C122.677 12.0124 123.634 11.4845 124.803 11.4845H134.264C134.689 11.4845 135.114 11.5901 135.539 11.8012C136.39 12.2236 136.815 12.9627 136.815 13.913C136.709 14.3354 136.602 14.7578 136.39 15.1801Z" fill="white"/>
<path fill-rule="evenodd" clip-rule="evenodd" d="M187.193 24.9193H178.689C176.988 24.9193 175.606 24.3913 174.331 23.3354C172.736 21.9627 171.992 20.2733 171.992 18.2671C171.992 16.5776 172.524 15.0994 173.587 13.8323C174.969 12.2484 176.669 11.5093 178.689 11.5093H187.193C187.406 11.5093 187.724 11.4037 187.937 11.2981C188.575 10.9814 189 10.4534 189 9.71428C189 9.5031 188.894 9.18633 188.787 8.97515C188.469 8.34161 187.937 7.91925 187.193 7.91925C187.193 7.91925 185.811 7.91925 182.941 7.91925C180.071 7.91925 178.689 7.91925 178.689 7.91925C175.819 7.91925 173.374 8.97515 171.354 10.9814C169.335 12.9876 168.378 15.4161 168.378 18.1615C168.378 21.0124 169.441 23.441 171.461 25.4472C173.48 27.4534 175.819 28.4037 178.689 28.4037H187.193C187.406 28.4037 187.724 28.4037 187.937 28.1925C188.575 27.8758 189 27.3478 189 26.6087C189 26.3975 188.894 26.0807 188.787 25.8696C188.469 25.236 187.937 24.9193 187.193 24.9193Z" fill="white"/>
<path fill-rule="evenodd" clip-rule="evenodd" d="M68.563 38.646V34.8447H64.6299L64.5236 36.4286C64.4173 37.5901 64.311 38.646 63.6732 38.646H63.4606V40.6522H64.5236V39.5963H68.2441V40.6522H69.3071V38.646H68.563ZM65.5866 36.5342V35.795H67.3937V38.646H65.0551C65.4803 38.2236 65.5866 37.3789 65.5866 36.5342ZM74.8346 37.1677C74.8346 35.6894 73.7717 34.7391 72.3898 34.7391C71.0079 34.7391 69.9449 35.795 69.9449 37.1677C69.9449 38.5404 71.0079 39.5963 72.6024 39.5963C73.4528 39.5963 74.0905 39.2795 74.5157 38.8571L73.878 38.118C73.5591 38.4348 73.1339 38.646 72.6024 38.646C71.752 38.646 71.2205 38.2236 71.0079 37.4845H74.8346C74.8346 37.3789 74.8346 37.2733 74.8346 37.1677ZM72.3898 35.5839C73.1339 35.5839 73.6654 36.0062 73.7717 36.7453H71.0079C71.1142 36.1118 71.6457 35.5839 72.3898 35.5839ZM76.0039 39.5963H77.1732V37.6957H79.6181V39.5963H80.7874V34.8447H79.6181V36.7453H77.1732V34.8447H76.0039V39.5963ZM86.7402 37.1677C86.7402 35.6894 85.6772 34.7391 84.2953 34.7391C82.9134 34.7391 81.8504 35.795 81.8504 37.1677C81.8504 38.5404 82.9134 39.5963 84.5079 39.5963C85.3583 39.5963 85.9961 39.2795 86.4213 38.8571L85.7835 38.118C85.4646 38.4348 85.0394 38.646 84.5079 38.646C83.6575 38.646 83.126 38.2236 82.9134 37.4845H86.7402C86.7402 37.3789 86.7402 37.2733 86.7402 37.1677ZM84.2953 35.5839C85.0394 35.5839 85.5709 36.0062 85.6772 36.7453H82.9134C83.0197 36.1118 83.5512 35.5839 84.2953 35.5839ZM93.5433 39.5963H94.9252L93.3307 37.1677L94.8189 34.8447H93.5433L92.374 36.7453H91.5236V34.8447H90.3543V36.7453H89.5039L88.3346 34.8447H87.1654L88.6535 37.1677L87.1654 39.5963H88.5472L89.7165 37.6957H90.5669V39.5963H91.7362V37.6957H92.5866L93.5433 39.5963ZM95.7756 39.5963H96.9449V37.6957H99.3898V39.5963H100.559V34.8447H99.3898V36.7453H96.9449V34.8447H95.7756V39.5963ZM104.28 36.323H103.11V34.7391H101.941V39.4907H104.173C105.449 39.4907 106.193 38.8571 106.193 37.9068C106.193 36.9565 105.555 36.323 104.28 36.323ZM106.831 39.4907H108V34.7391H106.831V39.4907ZM103.961 38.7516H103.004V37.1677H103.961C104.598 37.1677 105.024 37.3789 105.024 37.9068C105.024 38.4348 104.705 38.7516 103.961 38.7516ZM113.953 37.1677C113.953 35.6894 112.89 34.7391 111.508 34.7391C110.126 34.7391 109.063 35.795 109.063 37.1677C109.063 38.5404 110.126 39.5963 111.72 39.5963C112.571 39.5963 113.209 39.2795 113.634 38.8571L112.996 38.118C112.677 38.4348 112.252 38.646 111.72 38.646C110.87 38.646 110.339 38.2236 110.126 37.4845H113.953C113.953 37.3789 113.953 37.2733 113.953 37.1677ZM111.508 35.5839C112.252 35.5839 112.783 36.0062 112.89 36.7453H110.126C110.232 36.1118 110.764 35.5839 111.508 35.5839ZM117.673 34.7391V39.4907H118.843V35.6894H121.181V39.4907H122.35V34.7391H117.673ZM128.303 37.1677C128.303 35.6894 127.24 34.7391 125.858 34.7391C124.476 34.7391 123.413 35.795 123.413 37.1677C123.413 38.5404 124.476 39.5963 126.071 39.5963C126.921 39.5963 127.559 39.2795 127.984 38.8571L127.346 38.118C127.028 38.4348 126.602 38.646 126.071 38.646C125.22 38.646 124.689 38.2236 124.476 37.4845H128.303C128.303 37.3789 128.303 37.2733 128.303 37.1677ZM125.858 35.5839C126.602 35.5839 127.134 36.0062 127.24 36.7453H124.476C124.583 36.1118 125.114 35.5839 125.858 35.5839ZM132.236 34.7391C131.598 34.7391 131.067 34.9503 130.642 35.3727V34.7391H129.579V41.2857H130.748V38.9627C131.173 39.3851 131.705 39.5963 132.236 39.5963C133.618 39.5963 134.681 38.646 134.681 37.1677C134.681 35.6894 133.618 34.7391 132.236 34.7391ZM132.024 38.646C131.173 38.646 130.642 38.0124 130.642 37.1677C130.642 36.2174 131.28 35.6894 132.024 35.6894C132.874 35.6894 133.406 36.323 133.406 37.1677C133.512 38.118 132.874 38.646 132.024 38.646ZM140.209 37.1677C140.209 35.6894 139.146 34.7391 137.764 34.7391C136.382 34.7391 135.319 35.795 135.319 37.1677C135.319 38.5404 136.382 39.5963 137.976 39.5963C138.827 39.5963 139.465 39.2795 139.89 38.8571L139.252 38.118C138.933 38.4348 138.508 38.646 137.976 38.646C137.126 38.646 136.594 38.2236 136.382 37.4845H140.209C140.209 37.3789 140.209 37.2733 140.209 37.1677ZM137.87 35.5839C138.614 35.5839 139.146 36.0062 139.252 36.7453H136.488C136.594 36.1118 137.126 35.5839 137.87 35.5839ZM144.992 37.0621C145.417 36.8509 145.736 36.5342 145.736 36.0062C145.736 35.2671 144.992 34.7391 143.823 34.7391H141.484V39.4907H143.929C145.205 39.4907 145.843 38.9627 145.843 38.118C145.843 37.5901 145.524 37.2733 144.992 37.0621ZM142.547 35.5839H143.717C144.248 35.5839 144.567 35.795 144.567 36.2174C144.567 36.6398 144.248 36.8509 143.717 36.8509H142.547V35.5839ZM143.823 38.7516H142.547V37.4845H143.823C144.461 37.4845 144.673 37.6957 144.673 38.118C144.78 38.5404 144.461 38.7516 143.823 38.7516ZM149.244 39.5963C150.732 39.5963 151.795 38.5404 151.795 37.1677C151.795 35.6894 150.732 34.7391 149.244 34.7391C147.756 34.7391 146.693 35.795 146.693 37.1677C146.693 38.5404 147.756 39.5963 149.244 39.5963ZM149.244 38.646C148.394 38.646 147.862 38.0124 147.862 37.1677C147.862 36.2174 148.5 35.6894 149.244 35.6894C150.094 35.6894 150.626 36.323 150.626 37.1677C150.626 38.118 149.988 38.646 149.244 38.646ZM157.217 38.646V34.8447H153.283L153.177 36.4286C153.071 37.5901 152.965 38.646 152.327 38.646H152.114V40.6522H153.177V39.5963H156.898V40.6522H157.961V38.646H157.217ZM154.24 36.5342V35.795H156.047V38.646H153.709C154.134 38.2236 154.24 37.3789 154.24 36.5342ZM161.362 36.323H160.193V34.7391H159.024V39.4907H161.256C162.531 39.4907 163.276 38.8571 163.276 37.9068C163.169 36.9565 162.531 36.323 161.362 36.323ZM163.807 39.4907H164.976V34.7391H163.807V39.4907ZM161.043 38.7516H160.087V37.1677H161.043C161.681 37.1677 162.106 37.3789 162.106 37.9068C162.106 38.4348 161.681 38.7516 161.043 38.7516Z" fill="white"/>
<path fill-rule="evenodd" clip-rule="evenodd" d="M83.9409 10.1118C82.6653 8.63354 81.1772 8 79.2638 8H69.8031C68.1024 8 66.6142 8.52795 65.3386 9.58385C63.7441 10.9565 63 12.646 63 14.7578V21.8323C63 23.5217 63.5315 25 64.7008 26.2671C66.0827 27.8509 67.7835 28.5901 69.8031 28.5901H79.2638C80.752 28.5901 82.0276 28.0621 83.0905 27.2174C84.5787 26.0559 85.3228 24.472 85.3228 22.5714C85.3228 20.882 84.685 19.5093 83.5157 18.2422C84.685 17.0807 85.3228 15.6025 85.3228 13.913C85.3228 12.5404 84.8976 11.2733 83.9409 10.1118ZM81.4961 23.7329C81.0709 24.5776 80.3268 25 79.3701 25H69.9094C69.2717 25 68.7402 24.7888 68.1024 24.472C67.1457 23.8385 66.6142 22.8882 66.6142 21.7267V20.0373H79.3701C79.7953 20.0373 80.2205 20.1429 80.6457 20.354C81.4961 20.7764 81.9213 21.5155 81.9213 22.5714C81.815 22.8882 81.7087 23.3106 81.4961 23.7329ZM81.4961 15.1801C81.0709 16.0248 80.3268 16.4472 79.3701 16.4472H66.6142V14.7578C66.6142 14.1242 66.8268 13.4907 67.1457 12.9627C67.7835 12.0124 68.7402 11.4845 69.9094 11.4845H79.3701C79.7953 11.4845 80.2205 11.5901 80.6457 11.8012C81.4961 12.2236 81.9213 12.9627 81.9213 13.913C81.815 14.3354 81.7087 14.7578 81.4961 15.1801Z" fill="white"/>
<path fill-rule="evenodd" clip-rule="evenodd" d="M148.146 14.0683C148.783 13.118 149.74 12.5901 150.909 12.5901C154.949 12.5901 158.882 12.5901 162.921 12.5901C163.134 12.5901 163.453 12.4845 163.665 12.3789C164.303 12.0621 164.728 11.5342 164.728 10.795C164.728 10.5839 164.622 10.2671 164.516 10.0559C164.197 9.42236 163.665 9 162.921 9C162.921 9 162.177 9 160.583 9C159.094 9 157.181 9 155.055 9C152.929 9 151.547 9 150.803 9C149.102 9 147.614 9.52795 146.339 10.6894C144.744 12.0621 144 13.7516 144 15.7578V22.7267C144 24.4162 144.531 25.8944 145.594 27.1615C146.976 28.7453 148.677 29.4845 150.803 29.4845C154.843 29.4845 158.776 29.4845 162.815 29.4845C163.028 29.4845 163.346 29.4845 163.559 29.2733C164.197 28.9565 164.622 28.4286 164.622 27.6894C164.622 27.4783 164.516 27.1615 164.409 26.9503C164.091 26.3168 163.559 25.8944 162.815 25.8944C158.776 25.8944 154.843 25.8944 150.803 25.8944C150.165 25.8944 149.528 25.6832 148.996 25.3665C148.039 24.7329 147.508 23.7826 147.508 22.6211V20.9317C154.843 20.9317 158.563 20.9317 158.563 20.9317C158.776 20.9317 159.094 20.8261 159.307 20.7205C159.945 20.4037 160.37 19.8758 160.37 19.1366C160.37 18.9255 160.37 18.6087 160.157 18.3975C159.839 17.764 159.307 17.3416 158.563 17.3416H147.508V15.8634C147.614 15.2298 147.72 14.5963 148.146 14.0683Z" fill="white"/>
</g>
<defs>
<clipPath id="clip0_1_62">
<rect width="189" height="51" fill="white"/>
</clipPath>
</defs>
</svg>
